<svg width="1497" height="414" viewBox="0 0 1497 414" fill="none" xmlns="http://www.w3.org/2000/svg">
<rect y="20" width="20" height="374" fill="#363636"/>
<rect x="1477" y="20" width="20" height="374" fill="#363636"/>
<rect x="1431.35" y="394" width="20" height="1368.35" transform="rotate(90 1431.35 394)" fill="#363636"/>
<rect x="1430.91" width="20" height="1368.35" transform="rotate(90 1430.91 0)" fill="#363636"/>
<path d="M568.595 332.872V81.2526H605.567V185.324H634.324V81.2526H671.296V332.872H634.324V223.323H605.567V332.872H568.595Z" fill="#363636"/>
<path d="M708.057 332.872L746.057 81.2526L791.246 81.2526L829.245 332.872H793.3L786.453 281.521H750.85L744.003 332.872H708.057ZM755.985 242.494H781.318L770.706 157.936L769.678 144.585H767.624L766.597 157.936L755.985 242.494Z" fill="#363636"/>
<path d="M913.52 335.61C903.021 335.61 894.063 333.271 886.646 328.592C879.343 323.8 873.751 317.295 869.871 309.079C866.106 300.863 864.223 291.563 864.223 281.178V132.946C864.223 122.676 866.163 113.432 870.043 105.216C874.036 97.0002 879.742 90.4958 887.159 85.703C894.577 80.9103 903.363 78.5139 913.52 78.5139C921.165 78.5139 928.012 79.9403 934.06 82.7931C940.108 85.646 945.243 89.5829 949.465 94.6038C953.801 99.5107 957.111 105.273 959.393 111.892C961.675 118.396 962.816 125.414 962.816 132.946V167.522H928.24V132.946C928.24 127.697 927.156 123.303 924.988 119.766C922.82 116.228 919.225 114.459 914.204 114.459C909.64 114.459 906.33 116.285 904.276 119.937C902.222 123.589 901.195 127.925 901.195 132.946V281.178C901.195 286.199 902.279 290.536 904.448 294.187C906.73 297.839 909.982 299.665 914.204 299.665C919.339 299.665 922.934 297.896 924.988 294.358C927.156 290.821 928.24 286.428 928.24 281.178V246.602H962.816V281.178C962.816 291.449 960.819 300.692 956.825 308.908C952.831 317.124 947.126 323.628 939.708 328.421C932.405 333.214 923.676 335.61 913.52 335.61Z" fill="#363636"/>
<path d="M1005.74 332.872V81.2526H1042.72V165.126V169.234H1044.09L1045.8 165.126L1074.56 81.2526H1112.55L1078.66 164.099L1117.01 332.872H1079.01L1054.36 218.188H1053.33L1042.72 243.863V332.872L1005.74 332.872Z" fill="#363636"/>
<path d="M1151.24 332.872V81.2526L1235.8 81.2526V119.252L1188.21 119.252V187.035H1222.45V224.008H1188.21V294.872H1235.8V332.872H1151.24Z" fill="#363636"/>
<path d="M1280.35 332.872V81.2526H1317.32C1339.46 81.2526 1355.78 87.4147 1366.28 99.7389C1376.78 111.949 1382.03 129.979 1382.03 153.828C1382.03 167.978 1379.52 180.246 1374.49 190.63C1369.59 200.9 1363.6 208.431 1356.52 213.224L1381.68 332.872H1344.71L1323.83 226.747H1317.32V332.872H1280.35ZM1317.32 192.513C1324.17 192.513 1329.59 191.029 1333.59 188.062C1337.58 184.981 1340.43 180.645 1342.14 175.053C1343.86 169.462 1344.71 162.843 1344.71 155.198C1344.71 143.216 1342.71 134.03 1338.72 127.64C1334.84 121.135 1327.71 117.883 1317.32 117.883V192.513Z" fill="#363636"/>
<path d="M120.587 332.958L120.587 81.5244H157.532L157.532 298.75H206.451L206.451 332.958H120.587Z" fill="url(#paint0_linear_316_1370)"/>
<path d="M238.58 332.958L238.58 81.5244L275.526 81.5244V332.958H238.58Z" fill="url(#paint1_linear_316_1370)"/>
<path d="M320.16 332.958V81.5244L408.076 81.5244V119.496L357.105 119.496V185.519H391.314V223.491L357.105 223.491V332.958H320.16Z" fill="url(#paint2_linear_316_1370)"/>
<path d="M440.158 332.958L440.158 81.5244L524.653 81.5244V119.496H477.103V187.229H511.312V224.175H477.103L477.103 294.987H524.653V332.958H440.158Z" fill="url(#paint3_linear_316_1370)"/>
<defs>
<linearGradient id="paint0_linear_316_1370" x1="121" y1="207" x2="525" y2="207" gradientUnits="userSpaceOnUse">
<stop stop-color="#6FB538"/>
<stop offset="1" stop-color="#38B588"/>
</linearGradient>
<linearGradient id="paint1_linear_316_1370" x1="121" y1="207" x2="525" y2="207" gradientUnits="userSpaceOnUse">
<stop stop-color="#6FB538"/>
<stop offset="1" stop-color="#38B588"/>
</linearGradient>
<linearGradient id="paint2_linear_316_1370" x1="121" y1="207" x2="525" y2="207" gradientUnits="userSpaceOnUse">
<stop stop-color="#6FB538"/>
<stop offset="1" stop-color="#38B588"/>
</linearGradient>
<linearGradient id="paint3_linear_316_1370" x1="121" y1="207" x2="525" y2="207" gradientUnits="userSpaceOnUse">
<stop stop-color="#6FB538"/>
<stop offset="1" stop-color="#38B588"/>
</linearGradient>
</defs>
</svg>
